<svg width="1080" height="1080" viewBox="0 0 1080 1080" fill="none" xmlns="http://www.w3.org/2000/svg">
<rect width="1080" height="1080" fill="none"/>
<path d="M816.75 292.575V756.867C816.75 783.694 795.003 805.441 768.176 805.441H696.124C669.297 805.441 647.549 783.694 647.549 756.867V515.089C647.549 471.814 595.227 450.141 564.627 480.742L438.738 606.631C429.628 615.74 424.511 628.095 424.511 640.978V756.867C424.511 783.694 402.763 805.441 375.936 805.441H311.575C284.748 805.441 263 783.694 263 756.867V564.068C263 551.186 268.118 538.83 277.227 529.721L548.721 258.227C557.831 249.118 570.186 244 583.069 244H768.176C795.003 244 816.75 265.748 816.75 292.575Z" fill="url(#paint0_linear_96_27)"/>
<path d="M371.06 244H311.575C284.748 244 263 265.748 263 292.575V352.06C263 373.085 280.044 390.129 301.069 390.129C311.165 390.129 320.848 386.118 327.987 378.979L397.979 308.987C405.118 301.848 409.129 292.165 409.129 282.068C409.129 261.044 392.085 244 371.06 244Z" fill="url(#paint1_linear_96_27)"/>
<defs>
<linearGradient id="paint0_linear_96_27" x1="263" y1="211.015" x2="816.751" y2="771.762" gradientUnits="userSpaceOnUse">
<stop stop-color="#01AEBF"/>
<stop offset="1" stop-color="#161ABD"/>
</linearGradient>
<linearGradient id="paint1_linear_96_27" x1="263" y1="211.015" x2="816.751" y2="771.762" gradientUnits="userSpaceOnUse">
<stop stop-color="#01AEBF"/>
<stop offset="1" stop-color="#161ABD"/>
</linearGradient>
</defs>
</svg>
